<mxfile host="app.diagrams.net" modified="2024-05-25T13:09:31.063Z" agent="Mozilla/5.0 (Windows NT 10.0; Win64; x64) AppleWebKit/537.36 (KHTML, like Gecko) Chrome/125.0.0.0 Safari/537.36" etag="AQ_7yxmlw9T4tr1rMman" version="24.4.6" type="github">
  <diagram name="Seite-1" id="YVCjGE0m4uUGGsczh6MV">
    <mxGraphModel dx="1247" dy="642" grid="1" gridSize="10" guides="1" tooltips="1" connect="1" arrows="1" fold="1" page="1" pageScale="1" pageWidth="1654" pageHeight="2336" math="0" shadow="0">
      <root>
        <mxCell id="0" />
        <mxCell id="1" parent="0" />
        <mxCell id="pIc5v-TNFkZiDa0ryKYn-6" value="&lt;span style=&quot;font-weight: normal;&quot;&gt;User&lt;/span&gt;" style="swimlane;startSize=20;whiteSpace=wrap;html=1;" parent="1" vertex="1">
          <mxGeometry x="50" y="80" width="330" height="1590" as="geometry" />
        </mxCell>
        <mxCell id="pIc5v-TNFkZiDa0ryKYn-67" value="gutes&amp;nbsp;&lt;div&gt;Ergebnis?&lt;/div&gt;" style="text;html=1;align=center;verticalAlign=middle;resizable=0;points=[];autosize=1;strokeColor=none;fillColor=none;fontFamily=Helvetica;fontSize=11;fontColor=default;labelBackgroundColor=default;" parent="pIc5v-TNFkZiDa0ryKYn-6" vertex="1">
          <mxGeometry x="74" y="940" width="70" height="40" as="geometry" />
        </mxCell>
        <mxCell id="pIc5v-TNFkZiDa0ryKYn-38" value="Tags wie&lt;br&gt;im Vormonat?" style="text;html=1;align=center;verticalAlign=middle;resizable=0;points=[];autosize=1;strokeColor=none;fillColor=none;fontFamily=Helvetica;fontSize=11;fontColor=default;labelBackgroundColor=default;" parent="pIc5v-TNFkZiDa0ryKYn-6" vertex="1">
          <mxGeometry x="56" y="325" width="90" height="40" as="geometry" />
        </mxCell>
        <mxCell id="pIc5v-TNFkZiDa0ryKYn-8" value="" style="ellipse;html=1;shape=startState;fillColor=#000000;strokeColor=#000000;" parent="pIc5v-TNFkZiDa0ryKYn-6" vertex="1">
          <mxGeometry x="127" y="50" width="30" height="30" as="geometry" />
        </mxCell>
        <mxCell id="pIc5v-TNFkZiDa0ryKYn-15" style="edgeStyle=orthogonalEdgeStyle;rounded=0;orthogonalLoop=1;jettySize=auto;html=1;entryX=0.5;entryY=0;entryDx=0;entryDy=0;strokeColor=default;align=center;verticalAlign=middle;fontFamily=Helvetica;fontSize=11;fontColor=default;labelBackgroundColor=default;endArrow=open;endFill=0;" parent="pIc5v-TNFkZiDa0ryKYn-6" source="pIc5v-TNFkZiDa0ryKYn-9" target="pIc5v-TNFkZiDa0ryKYn-13" edge="1">
          <mxGeometry relative="1" as="geometry" />
        </mxCell>
        <mxCell id="pIc5v-TNFkZiDa0ryKYn-9" value="Schichten&amp;nbsp;&lt;div&gt;erstellen&lt;/div&gt;" style="rounded=1;whiteSpace=wrap;html=1;fontSize=11;" parent="pIc5v-TNFkZiDa0ryKYn-6" vertex="1">
          <mxGeometry x="93" y="217" width="98" height="40" as="geometry" />
        </mxCell>
        <mxCell id="pIc5v-TNFkZiDa0ryKYn-12" style="edgeStyle=orthogonalEdgeStyle;rounded=0;orthogonalLoop=1;jettySize=auto;html=1;entryX=0.5;entryY=0;entryDx=0;entryDy=0;endArrow=open;endFill=0;" parent="pIc5v-TNFkZiDa0ryKYn-6" source="pIc5v-TNFkZiDa0ryKYn-10" target="pIc5v-TNFkZiDa0ryKYn-9" edge="1">
          <mxGeometry relative="1" as="geometry" />
        </mxCell>
        <mxCell id="pIc5v-TNFkZiDa0ryKYn-18" style="edgeStyle=orthogonalEdgeStyle;rounded=0;orthogonalLoop=1;jettySize=auto;html=1;entryX=0;entryY=0.5;entryDx=0;entryDy=0;strokeColor=default;align=center;verticalAlign=middle;fontFamily=Helvetica;fontSize=11;fontColor=default;labelBackgroundColor=default;endArrow=open;endFill=0;exitX=0;exitY=0.5;exitDx=0;exitDy=0;" parent="pIc5v-TNFkZiDa0ryKYn-6" source="pIc5v-TNFkZiDa0ryKYn-10" target="pIc5v-TNFkZiDa0ryKYn-13" edge="1">
          <mxGeometry relative="1" as="geometry">
            <Array as="points">
              <mxPoint x="40" y="145" />
              <mxPoint x="40" y="321" />
            </Array>
          </mxGeometry>
        </mxCell>
        <mxCell id="pIc5v-TNFkZiDa0ryKYn-10" value="" style="rhombus;whiteSpace=wrap;html=1;" parent="pIc5v-TNFkZiDa0ryKYn-6" vertex="1">
          <mxGeometry x="117" y="120" width="50" height="50" as="geometry" />
        </mxCell>
        <mxCell id="pIc5v-TNFkZiDa0ryKYn-11" style="edgeStyle=orthogonalEdgeStyle;rounded=0;orthogonalLoop=1;jettySize=auto;html=1;entryX=0.5;entryY=0;entryDx=0;entryDy=0;endArrow=open;endFill=0;" parent="pIc5v-TNFkZiDa0ryKYn-6" source="pIc5v-TNFkZiDa0ryKYn-8" target="pIc5v-TNFkZiDa0ryKYn-10" edge="1">
          <mxGeometry relative="1" as="geometry">
            <mxPoint x="142" y="80" as="sourcePoint" />
            <Array as="points" />
          </mxGeometry>
        </mxCell>
        <mxCell id="pIc5v-TNFkZiDa0ryKYn-16" style="edgeStyle=orthogonalEdgeStyle;rounded=0;orthogonalLoop=1;jettySize=auto;html=1;strokeColor=default;align=center;verticalAlign=middle;fontFamily=Helvetica;fontSize=11;fontColor=default;labelBackgroundColor=default;endArrow=open;endFill=0;" parent="pIc5v-TNFkZiDa0ryKYn-6" source="pIc5v-TNFkZiDa0ryKYn-13" target="pIc5v-TNFkZiDa0ryKYn-14" edge="1">
          <mxGeometry relative="1" as="geometry" />
        </mxCell>
        <mxCell id="pIc5v-TNFkZiDa0ryKYn-27" style="edgeStyle=orthogonalEdgeStyle;rounded=0;orthogonalLoop=1;jettySize=auto;html=1;entryX=1;entryY=0.5;entryDx=0;entryDy=0;strokeColor=default;align=center;verticalAlign=middle;fontFamily=Helvetica;fontSize=11;fontColor=default;labelBackgroundColor=default;endArrow=open;endFill=0;" parent="pIc5v-TNFkZiDa0ryKYn-6" source="pIc5v-TNFkZiDa0ryKYn-13" target="pIc5v-TNFkZiDa0ryKYn-21" edge="1">
          <mxGeometry relative="1" as="geometry">
            <Array as="points">
              <mxPoint x="250" y="320" />
              <mxPoint x="250" y="500" />
            </Array>
          </mxGeometry>
        </mxCell>
        <mxCell id="pIc5v-TNFkZiDa0ryKYn-13" value="" style="rhombus;whiteSpace=wrap;html=1;fontFamily=Helvetica;fontSize=11;fontColor=default;labelBackgroundColor=default;" parent="pIc5v-TNFkZiDa0ryKYn-6" vertex="1">
          <mxGeometry x="117" y="296" width="50" height="50" as="geometry" />
        </mxCell>
        <mxCell id="pIc5v-TNFkZiDa0ryKYn-14" value="Tags zuordnen" style="rounded=1;whiteSpace=wrap;html=1;fontFamily=Helvetica;fontSize=11;fontColor=default;labelBackgroundColor=default;" parent="pIc5v-TNFkZiDa0ryKYn-6" vertex="1">
          <mxGeometry x="93" y="397" width="98" height="40" as="geometry" />
        </mxCell>
        <mxCell id="pIc5v-TNFkZiDa0ryKYn-49" style="edgeStyle=orthogonalEdgeStyle;rounded=0;orthogonalLoop=1;jettySize=auto;html=1;strokeColor=default;align=center;verticalAlign=middle;fontFamily=Helvetica;fontSize=11;fontColor=default;labelBackgroundColor=default;endArrow=open;endFill=0;" parent="pIc5v-TNFkZiDa0ryKYn-6" source="pIc5v-TNFkZiDa0ryKYn-22" target="pIc5v-TNFkZiDa0ryKYn-46" edge="1">
          <mxGeometry relative="1" as="geometry" />
        </mxCell>
        <mxCell id="pIc5v-TNFkZiDa0ryKYn-22" value="" style="rhombus;whiteSpace=wrap;html=1;fontFamily=Helvetica;fontSize=11;fontColor=default;labelBackgroundColor=default;" parent="pIc5v-TNFkZiDa0ryKYn-6" vertex="1">
          <mxGeometry x="118" y="557" width="50" height="50" as="geometry" />
        </mxCell>
        <mxCell id="pIc5v-TNFkZiDa0ryKYn-23" value="" style="edgeStyle=orthogonalEdgeStyle;rounded=0;orthogonalLoop=1;jettySize=auto;html=1;entryX=0.5;entryY=0;entryDx=0;entryDy=0;strokeColor=default;align=center;verticalAlign=middle;fontFamily=Helvetica;fontSize=11;fontColor=default;labelBackgroundColor=default;endArrow=open;endFill=0;" parent="pIc5v-TNFkZiDa0ryKYn-6" source="pIc5v-TNFkZiDa0ryKYn-14" target="pIc5v-TNFkZiDa0ryKYn-21" edge="1">
          <mxGeometry relative="1" as="geometry">
            <mxPoint x="222" y="520" as="sourcePoint" />
            <mxPoint x="222" y="590" as="targetPoint" />
          </mxGeometry>
        </mxCell>
        <mxCell id="pIc5v-TNFkZiDa0ryKYn-24" style="edgeStyle=orthogonalEdgeStyle;rounded=0;orthogonalLoop=1;jettySize=auto;html=1;entryX=0.5;entryY=0;entryDx=0;entryDy=0;strokeColor=default;align=center;verticalAlign=middle;fontFamily=Helvetica;fontSize=11;fontColor=default;labelBackgroundColor=default;endArrow=open;endFill=0;" parent="pIc5v-TNFkZiDa0ryKYn-6" source="pIc5v-TNFkZiDa0ryKYn-21" target="pIc5v-TNFkZiDa0ryKYn-22" edge="1">
          <mxGeometry relative="1" as="geometry" />
        </mxCell>
        <mxCell id="pIc5v-TNFkZiDa0ryKYn-21" value="VerfÃ¼gbarkeiten eingeben" style="rounded=1;whiteSpace=wrap;html=1;fontFamily=Helvetica;fontSize=11;fontColor=default;labelBackgroundColor=default;" parent="pIc5v-TNFkZiDa0ryKYn-6" vertex="1">
          <mxGeometry x="93" y="480" width="98" height="40" as="geometry" />
        </mxCell>
        <mxCell id="pIc5v-TNFkZiDa0ryKYn-33" style="edgeStyle=orthogonalEdgeStyle;rounded=0;orthogonalLoop=1;jettySize=auto;html=1;entryX=0.5;entryY=0;entryDx=0;entryDy=0;strokeColor=default;align=center;verticalAlign=middle;fontFamily=Helvetica;fontSize=11;fontColor=default;labelBackgroundColor=default;endArrow=open;endFill=0;" parent="pIc5v-TNFkZiDa0ryKYn-6" source="pIc5v-TNFkZiDa0ryKYn-30" target="pIc5v-TNFkZiDa0ryKYn-32" edge="1">
          <mxGeometry relative="1" as="geometry" />
        </mxCell>
        <mxCell id="pIc5v-TNFkZiDa0ryKYn-30" value="Konflikte behandeln" style="rounded=1;whiteSpace=wrap;html=1;fontFamily=Helvetica;fontSize=11;fontColor=default;labelBackgroundColor=default;" parent="pIc5v-TNFkZiDa0ryKYn-6" vertex="1">
          <mxGeometry x="93" y="827" width="98" height="40" as="geometry" />
        </mxCell>
        <mxCell id="pIc5v-TNFkZiDa0ryKYn-76" style="edgeStyle=orthogonalEdgeStyle;rounded=0;orthogonalLoop=1;jettySize=auto;html=1;entryX=0.5;entryY=0;entryDx=0;entryDy=0;strokeColor=default;align=center;verticalAlign=middle;fontFamily=Helvetica;fontSize=11;fontColor=default;labelBackgroundColor=default;endArrow=open;endFill=0;" parent="pIc5v-TNFkZiDa0ryKYn-6" source="pIc5v-TNFkZiDa0ryKYn-32" target="pIc5v-TNFkZiDa0ryKYn-74" edge="1">
          <mxGeometry relative="1" as="geometry" />
        </mxCell>
        <mxCell id="pIc5v-TNFkZiDa0ryKYn-85" style="edgeStyle=orthogonalEdgeStyle;rounded=0;orthogonalLoop=1;jettySize=auto;html=1;strokeColor=default;align=center;verticalAlign=middle;fontFamily=Helvetica;fontSize=11;fontColor=default;labelBackgroundColor=default;endArrow=open;endFill=0;" parent="pIc5v-TNFkZiDa0ryKYn-6" source="pIc5v-TNFkZiDa0ryKYn-32" target="pIc5v-TNFkZiDa0ryKYn-51" edge="1">
          <mxGeometry relative="1" as="geometry" />
        </mxCell>
        <mxCell id="pIc5v-TNFkZiDa0ryKYn-32" value="" style="rhombus;whiteSpace=wrap;html=1;fontFamily=Helvetica;fontSize=11;fontColor=default;labelBackgroundColor=default;" parent="pIc5v-TNFkZiDa0ryKYn-6" vertex="1">
          <mxGeometry x="117" y="912" width="50" height="50" as="geometry" />
        </mxCell>
        <mxCell id="pIc5v-TNFkZiDa0ryKYn-35" value="Schichten wie&lt;br&gt;im Vormonat?" style="text;html=1;align=center;verticalAlign=middle;resizable=0;points=[];autosize=1;strokeColor=none;fillColor=none;fontFamily=Helvetica;fontSize=11;fontColor=default;labelBackgroundColor=default;" parent="pIc5v-TNFkZiDa0ryKYn-6" vertex="1">
          <mxGeometry x="159" y="126" width="90" height="40" as="geometry" />
        </mxCell>
        <mxCell id="pIc5v-TNFkZiDa0ryKYn-36" value="[ja]" style="text;html=1;align=center;verticalAlign=middle;resizable=0;points=[];autosize=1;strokeColor=none;fillColor=none;fontFamily=Helvetica;fontSize=11;fontColor=default;labelBackgroundColor=default;" parent="pIc5v-TNFkZiDa0ryKYn-6" vertex="1">
          <mxGeometry x="80" y="120" width="40" height="30" as="geometry" />
        </mxCell>
        <mxCell id="pIc5v-TNFkZiDa0ryKYn-37" value="[nein]" style="text;html=1;align=center;verticalAlign=middle;resizable=0;points=[];autosize=1;strokeColor=none;fillColor=none;fontFamily=Helvetica;fontSize=11;fontColor=default;labelBackgroundColor=default;" parent="pIc5v-TNFkZiDa0ryKYn-6" vertex="1">
          <mxGeometry x="134" y="167" width="50" height="30" as="geometry" />
        </mxCell>
        <mxCell id="pIc5v-TNFkZiDa0ryKYn-39" value="" style="strokeWidth=1;html=1;shape=mxgraph.flowchart.annotation_2;align=left;labelPosition=right;pointerEvents=1;rotation=90;fontFamily=Helvetica;fontSize=11;fontColor=default;labelBackgroundColor=default;" parent="pIc5v-TNFkZiDa0ryKYn-6" vertex="1">
          <mxGeometry x="174" y="240" width="9" height="11" as="geometry" />
        </mxCell>
        <mxCell id="pIc5v-TNFkZiDa0ryKYn-40" value="" style="endArrow=none;html=1;rounded=0;entryX=0.519;entryY=0.49;entryDx=0;entryDy=0;entryPerimeter=0;exitX=1;exitY=0.5;exitDx=0;exitDy=0;exitPerimeter=0;strokeWidth=1;strokeColor=default;align=center;verticalAlign=middle;fontFamily=Helvetica;fontSize=11;fontColor=default;labelBackgroundColor=default;edgeStyle=orthogonalEdgeStyle;" parent="pIc5v-TNFkZiDa0ryKYn-6" source="pIc5v-TNFkZiDa0ryKYn-39" target="pIc5v-TNFkZiDa0ryKYn-39" edge="1">
          <mxGeometry width="50" height="50" relative="1" as="geometry">
            <mxPoint x="-437" y="331.5" as="sourcePoint" />
            <mxPoint x="-374" y="361.5" as="targetPoint" />
          </mxGeometry>
        </mxCell>
        <mxCell id="pIc5v-TNFkZiDa0ryKYn-41" value="" style="strokeWidth=1;html=1;shape=mxgraph.flowchart.annotation_2;align=left;labelPosition=right;pointerEvents=1;rotation=90;fontFamily=Helvetica;fontSize=11;fontColor=default;labelBackgroundColor=default;" parent="pIc5v-TNFkZiDa0ryKYn-6" vertex="1">
          <mxGeometry x="175" y="423" width="9" height="11" as="geometry" />
        </mxCell>
        <mxCell id="pIc5v-TNFkZiDa0ryKYn-42" value="" style="endArrow=none;html=1;rounded=0;entryX=0.519;entryY=0.49;entryDx=0;entryDy=0;entryPerimeter=0;exitX=1;exitY=0.5;exitDx=0;exitDy=0;exitPerimeter=0;strokeWidth=1;strokeColor=default;align=center;verticalAlign=middle;fontFamily=Helvetica;fontSize=11;fontColor=default;labelBackgroundColor=default;edgeStyle=orthogonalEdgeStyle;" parent="pIc5v-TNFkZiDa0ryKYn-6" source="pIc5v-TNFkZiDa0ryKYn-41" target="pIc5v-TNFkZiDa0ryKYn-41" edge="1">
          <mxGeometry width="50" height="50" relative="1" as="geometry">
            <mxPoint x="-438" y="517.5" as="sourcePoint" />
            <mxPoint x="-375" y="547.5" as="targetPoint" />
          </mxGeometry>
        </mxCell>
        <mxCell id="pIc5v-TNFkZiDa0ryKYn-44" value="" style="strokeWidth=1;html=1;shape=mxgraph.flowchart.annotation_2;align=left;labelPosition=right;pointerEvents=1;rotation=90;fontFamily=Helvetica;fontSize=11;fontColor=default;labelBackgroundColor=default;" parent="pIc5v-TNFkZiDa0ryKYn-6" vertex="1">
          <mxGeometry x="175" y="505" width="9" height="11" as="geometry" />
        </mxCell>
        <mxCell id="pIc5v-TNFkZiDa0ryKYn-45" value="" style="endArrow=none;html=1;rounded=0;entryX=0.519;entryY=0.49;entryDx=0;entryDy=0;entryPerimeter=0;exitX=1;exitY=0.5;exitDx=0;exitDy=0;exitPerimeter=0;strokeWidth=1;strokeColor=default;align=center;verticalAlign=middle;fontFamily=Helvetica;fontSize=11;fontColor=default;labelBackgroundColor=default;edgeStyle=orthogonalEdgeStyle;" parent="pIc5v-TNFkZiDa0ryKYn-6" source="pIc5v-TNFkZiDa0ryKYn-44" target="pIc5v-TNFkZiDa0ryKYn-44" edge="1">
          <mxGeometry width="50" height="50" relative="1" as="geometry">
            <mxPoint x="-438" y="596.5" as="sourcePoint" />
            <mxPoint x="-375" y="626.5" as="targetPoint" />
          </mxGeometry>
        </mxCell>
        <mxCell id="pIc5v-TNFkZiDa0ryKYn-46" value="Assistent*in zuordnen" style="rounded=1;whiteSpace=wrap;html=1;fontFamily=Helvetica;fontSize=11;fontColor=default;labelBackgroundColor=default;" parent="pIc5v-TNFkZiDa0ryKYn-6" vertex="1">
          <mxGeometry x="93" y="650" width="98" height="40" as="geometry" />
        </mxCell>
        <mxCell id="pIc5v-TNFkZiDa0ryKYn-51" value="Dienstplan bestÃ¤tigen" style="rounded=1;whiteSpace=wrap;html=1;fontFamily=Helvetica;fontSize=11;fontColor=default;labelBackgroundColor=default;" parent="pIc5v-TNFkZiDa0ryKYn-6" vertex="1">
          <mxGeometry x="93" y="1150" width="98" height="40" as="geometry" />
        </mxCell>
        <mxCell id="pIc5v-TNFkZiDa0ryKYn-57" value="" style="strokeWidth=1;html=1;shape=mxgraph.flowchart.annotation_2;align=left;labelPosition=right;pointerEvents=1;rotation=90;fontFamily=Helvetica;fontSize=11;fontColor=default;labelBackgroundColor=default;" parent="pIc5v-TNFkZiDa0ryKYn-6" vertex="1">
          <mxGeometry x="175" y="851" width="9" height="11" as="geometry" />
        </mxCell>
        <mxCell id="pIc5v-TNFkZiDa0ryKYn-58" value="" style="endArrow=none;html=1;rounded=0;entryX=0.519;entryY=0.49;entryDx=0;entryDy=0;entryPerimeter=0;exitX=1;exitY=0.5;exitDx=0;exitDy=0;exitPerimeter=0;strokeWidth=1;strokeColor=default;align=center;verticalAlign=middle;fontFamily=Helvetica;fontSize=11;fontColor=default;labelBackgroundColor=default;edgeStyle=orthogonalEdgeStyle;" parent="pIc5v-TNFkZiDa0ryKYn-6" source="pIc5v-TNFkZiDa0ryKYn-57" target="pIc5v-TNFkZiDa0ryKYn-57" edge="1">
          <mxGeometry width="50" height="50" relative="1" as="geometry">
            <mxPoint x="-438" y="839.5" as="sourcePoint" />
            <mxPoint x="-375" y="869.5" as="targetPoint" />
          </mxGeometry>
        </mxCell>
        <mxCell id="pIc5v-TNFkZiDa0ryKYn-60" value="Assistent*innen&amp;nbsp;&lt;div&gt;selbst zuordnen?&lt;/div&gt;" style="text;html=1;align=center;verticalAlign=middle;resizable=0;points=[];autosize=1;strokeColor=none;fillColor=none;fontFamily=Helvetica;fontSize=11;fontColor=default;labelBackgroundColor=default;" parent="pIc5v-TNFkZiDa0ryKYn-6" vertex="1">
          <mxGeometry x="17" y="567" width="110" height="40" as="geometry" />
        </mxCell>
        <mxCell id="pIc5v-TNFkZiDa0ryKYn-61" value="[ja]" style="text;html=1;align=center;verticalAlign=middle;resizable=0;points=[];autosize=1;strokeColor=none;fillColor=none;fontFamily=Helvetica;fontSize=11;fontColor=default;labelBackgroundColor=default;" parent="pIc5v-TNFkZiDa0ryKYn-6" vertex="1">
          <mxGeometry x="133" y="603" width="40" height="30" as="geometry" />
        </mxCell>
        <mxCell id="pIc5v-TNFkZiDa0ryKYn-62" value="[nein]" style="text;html=1;align=center;verticalAlign=middle;resizable=0;points=[];autosize=1;strokeColor=none;fillColor=none;fontFamily=Helvetica;fontSize=11;fontColor=default;labelBackgroundColor=default;" parent="pIc5v-TNFkZiDa0ryKYn-6" vertex="1">
          <mxGeometry x="164" y="557" width="50" height="30" as="geometry" />
        </mxCell>
        <mxCell id="pIc5v-TNFkZiDa0ryKYn-63" value="[ja]" style="text;html=1;align=center;verticalAlign=middle;resizable=0;points=[];autosize=1;strokeColor=none;fillColor=none;fontFamily=Helvetica;fontSize=11;fontColor=default;labelBackgroundColor=default;" parent="pIc5v-TNFkZiDa0ryKYn-6" vertex="1">
          <mxGeometry x="164" y="295" width="40" height="30" as="geometry" />
        </mxCell>
        <mxCell id="pIc5v-TNFkZiDa0ryKYn-64" value="[nein]" style="text;html=1;align=center;verticalAlign=middle;resizable=0;points=[];autosize=1;strokeColor=none;fillColor=none;fontFamily=Helvetica;fontSize=11;fontColor=default;labelBackgroundColor=default;" parent="pIc5v-TNFkZiDa0ryKYn-6" vertex="1">
          <mxGeometry x="135" y="348" width="50" height="30" as="geometry" />
        </mxCell>
        <mxCell id="pIc5v-TNFkZiDa0ryKYn-68" value="[ja]" style="text;html=1;align=center;verticalAlign=middle;resizable=0;points=[];autosize=1;strokeColor=none;fillColor=none;fontFamily=Helvetica;fontSize=11;fontColor=default;labelBackgroundColor=default;" parent="pIc5v-TNFkZiDa0ryKYn-6" vertex="1">
          <mxGeometry x="135" y="962" width="40" height="30" as="geometry" />
        </mxCell>
        <mxCell id="pIc5v-TNFkZiDa0ryKYn-69" value="[nein]" style="text;html=1;align=center;verticalAlign=middle;resizable=0;points=[];autosize=1;strokeColor=none;fillColor=none;fontFamily=Helvetica;fontSize=11;fontColor=default;labelBackgroundColor=default;" parent="pIc5v-TNFkZiDa0ryKYn-6" vertex="1">
          <mxGeometry x="167" y="912" width="50" height="30" as="geometry" />
        </mxCell>
        <mxCell id="pIc5v-TNFkZiDa0ryKYn-92" style="edgeStyle=orthogonalEdgeStyle;rounded=0;orthogonalLoop=1;jettySize=auto;html=1;entryX=0.5;entryY=0;entryDx=0;entryDy=0;strokeColor=default;align=center;verticalAlign=middle;fontFamily=Helvetica;fontSize=11;fontColor=default;labelBackgroundColor=default;endArrow=open;endFill=0;" parent="pIc5v-TNFkZiDa0ryKYn-6" source="pIc5v-TNFkZiDa0ryKYn-72" target="pIc5v-TNFkZiDa0ryKYn-91" edge="1">
          <mxGeometry relative="1" as="geometry" />
        </mxCell>
        <mxCell id="pIc5v-TNFkZiDa0ryKYn-102" style="edgeStyle=orthogonalEdgeStyle;rounded=0;orthogonalLoop=1;jettySize=auto;html=1;entryX=0;entryY=0.5;entryDx=0;entryDy=0;strokeColor=default;align=center;verticalAlign=middle;fontFamily=Helvetica;fontSize=11;fontColor=default;labelBackgroundColor=default;endArrow=open;endFill=0;" parent="pIc5v-TNFkZiDa0ryKYn-6" source="pIc5v-TNFkZiDa0ryKYn-72" target="pIc5v-TNFkZiDa0ryKYn-95" edge="1">
          <mxGeometry relative="1" as="geometry">
            <Array as="points">
              <mxPoint x="50" y="1290" />
              <mxPoint x="50" y="1453" />
            </Array>
          </mxGeometry>
        </mxCell>
        <mxCell id="pIc5v-TNFkZiDa0ryKYn-72" value="" style="rhombus;whiteSpace=wrap;html=1;fontFamily=Helvetica;fontSize=11;fontColor=default;labelBackgroundColor=default;" parent="pIc5v-TNFkZiDa0ryKYn-6" vertex="1">
          <mxGeometry x="117" y="1265" width="50" height="50" as="geometry" />
        </mxCell>
        <mxCell id="pIc5v-TNFkZiDa0ryKYn-77" style="edgeStyle=orthogonalEdgeStyle;rounded=0;orthogonalLoop=1;jettySize=auto;html=1;entryX=0.5;entryY=0;entryDx=0;entryDy=0;strokeColor=default;align=center;verticalAlign=middle;fontFamily=Helvetica;fontSize=11;fontColor=default;labelBackgroundColor=default;endArrow=open;endFill=0;" parent="pIc5v-TNFkZiDa0ryKYn-6" source="pIc5v-TNFkZiDa0ryKYn-74" target="pIc5v-TNFkZiDa0ryKYn-75" edge="1">
          <mxGeometry relative="1" as="geometry" />
        </mxCell>
        <mxCell id="pIc5v-TNFkZiDa0ryKYn-74" value="" style="rhombus;whiteSpace=wrap;html=1;fontFamily=Helvetica;fontSize=11;fontColor=default;labelBackgroundColor=default;" parent="pIc5v-TNFkZiDa0ryKYn-6" vertex="1">
          <mxGeometry x="214" y="962" width="50" height="50" as="geometry" />
        </mxCell>
        <mxCell id="pIc5v-TNFkZiDa0ryKYn-86" style="edgeStyle=orthogonalEdgeStyle;rounded=0;orthogonalLoop=1;jettySize=auto;html=1;entryX=1;entryY=0.5;entryDx=0;entryDy=0;strokeColor=default;align=center;verticalAlign=middle;fontFamily=Helvetica;fontSize=11;fontColor=default;labelBackgroundColor=default;endArrow=open;endFill=0;" parent="pIc5v-TNFkZiDa0ryKYn-6" source="pIc5v-TNFkZiDa0ryKYn-75" target="pIc5v-TNFkZiDa0ryKYn-51" edge="1">
          <mxGeometry relative="1" as="geometry" />
        </mxCell>
        <mxCell id="pIc5v-TNFkZiDa0ryKYn-75" value="Schichten&amp;nbsp;&lt;div&gt;tauschen&lt;/div&gt;" style="rounded=1;whiteSpace=wrap;html=1;fontFamily=Helvetica;fontSize=11;fontColor=default;labelBackgroundColor=default;" parent="pIc5v-TNFkZiDa0ryKYn-6" vertex="1">
          <mxGeometry x="190" y="1067" width="98" height="40" as="geometry" />
        </mxCell>
        <mxCell id="pIc5v-TNFkZiDa0ryKYn-79" value="" style="strokeWidth=1;html=1;shape=mxgraph.flowchart.annotation_2;align=left;labelPosition=right;pointerEvents=1;rotation=90;fontFamily=Helvetica;fontSize=11;fontColor=default;labelBackgroundColor=default;" parent="pIc5v-TNFkZiDa0ryKYn-6" vertex="1">
          <mxGeometry x="271" y="1091" width="9" height="11" as="geometry" />
        </mxCell>
        <mxCell id="pIc5v-TNFkZiDa0ryKYn-80" value="" style="endArrow=none;html=1;rounded=0;entryX=0.519;entryY=0.49;entryDx=0;entryDy=0;entryPerimeter=0;exitX=1;exitY=0.5;exitDx=0;exitDy=0;exitPerimeter=0;strokeWidth=1;strokeColor=default;align=center;verticalAlign=middle;fontFamily=Helvetica;fontSize=11;fontColor=default;labelBackgroundColor=default;edgeStyle=orthogonalEdgeStyle;" parent="pIc5v-TNFkZiDa0ryKYn-6" source="pIc5v-TNFkZiDa0ryKYn-79" target="pIc5v-TNFkZiDa0ryKYn-79" edge="1">
          <mxGeometry width="50" height="50" relative="1" as="geometry">
            <mxPoint x="-358" y="1236.5" as="sourcePoint" />
            <mxPoint x="-295" y="1266.5" as="targetPoint" />
          </mxGeometry>
        </mxCell>
        <mxCell id="pIc5v-TNFkZiDa0ryKYn-89" value="[selbst&amp;nbsp;&lt;div&gt;bearbeiten]&lt;/div&gt;" style="text;html=1;align=left;verticalAlign=middle;resizable=0;points=[];autosize=1;strokeColor=none;fillColor=none;fontFamily=Helvetica;fontSize=11;fontColor=default;labelBackgroundColor=default;" parent="pIc5v-TNFkZiDa0ryKYn-6" vertex="1">
          <mxGeometry x="241.5" y="1013" width="80" height="40" as="geometry" />
        </mxCell>
        <mxCell id="pIc5v-TNFkZiDa0ryKYn-96" style="edgeStyle=orthogonalEdgeStyle;rounded=0;orthogonalLoop=1;jettySize=auto;html=1;strokeColor=default;align=center;verticalAlign=middle;fontFamily=Helvetica;fontSize=11;fontColor=default;labelBackgroundColor=default;endArrow=open;endFill=0;" parent="pIc5v-TNFkZiDa0ryKYn-6" source="pIc5v-TNFkZiDa0ryKYn-91" target="pIc5v-TNFkZiDa0ryKYn-95" edge="1">
          <mxGeometry relative="1" as="geometry" />
        </mxCell>
        <mxCell id="pIc5v-TNFkZiDa0ryKYn-91" value="Format(e) auswÃ¤hlen" style="rounded=1;whiteSpace=wrap;html=1;fontFamily=Helvetica;fontSize=11;fontColor=default;labelBackgroundColor=default;" parent="pIc5v-TNFkZiDa0ryKYn-6" vertex="1">
          <mxGeometry x="93" y="1358" width="98" height="40" as="geometry" />
        </mxCell>
        <mxCell id="pIc5v-TNFkZiDa0ryKYn-99" style="edgeStyle=orthogonalEdgeStyle;rounded=0;orthogonalLoop=1;jettySize=auto;html=1;entryX=0.5;entryY=0;entryDx=0;entryDy=0;strokeColor=default;align=center;verticalAlign=middle;fontFamily=Helvetica;fontSize=11;fontColor=default;labelBackgroundColor=default;endArrow=open;endFill=0;" parent="pIc5v-TNFkZiDa0ryKYn-6" source="pIc5v-TNFkZiDa0ryKYn-95" target="pIc5v-TNFkZiDa0ryKYn-98" edge="1">
          <mxGeometry relative="1" as="geometry" />
        </mxCell>
        <mxCell id="pIc5v-TNFkZiDa0ryKYn-95" value="" style="rhombus;whiteSpace=wrap;html=1;fontFamily=Helvetica;fontSize=11;fontColor=default;labelBackgroundColor=default;" parent="pIc5v-TNFkZiDa0ryKYn-6" vertex="1">
          <mxGeometry x="117" y="1428" width="50" height="50" as="geometry" />
        </mxCell>
        <mxCell id="pIc5v-TNFkZiDa0ryKYn-98" value="" style="ellipse;html=1;shape=endState;fillColor=#000000;strokeColor=#000000;fontFamily=Helvetica;fontSize=11;fontColor=default;labelBackgroundColor=default;" parent="pIc5v-TNFkZiDa0ryKYn-6" vertex="1">
          <mxGeometry x="127" y="1518" width="30" height="30" as="geometry" />
        </mxCell>
        <mxCell id="pIc5v-TNFkZiDa0ryKYn-100" value="exportieren?" style="text;html=1;align=center;verticalAlign=middle;resizable=0;points=[];autosize=1;strokeColor=none;fillColor=none;fontFamily=Helvetica;fontSize=11;fontColor=default;labelBackgroundColor=default;" parent="pIc5v-TNFkZiDa0ryKYn-6" vertex="1">
          <mxGeometry x="104" y="1240" width="80" height="30" as="geometry" />
        </mxCell>
        <mxCell id="pIc5v-TNFkZiDa0ryKYn-101" value="[ja]" style="text;html=1;align=center;verticalAlign=middle;resizable=0;points=[];autosize=1;strokeColor=none;fillColor=none;fontFamily=Helvetica;fontSize=11;fontColor=default;labelBackgroundColor=default;" parent="pIc5v-TNFkZiDa0ryKYn-6" vertex="1">
          <mxGeometry x="134" y="1315" width="40" height="30" as="geometry" />
        </mxCell>
        <mxCell id="pIc5v-TNFkZiDa0ryKYn-103" value="[nein]" style="text;html=1;align=center;verticalAlign=middle;resizable=0;points=[];autosize=1;strokeColor=none;fillColor=none;fontFamily=Helvetica;fontSize=11;fontColor=default;labelBackgroundColor=default;" parent="pIc5v-TNFkZiDa0ryKYn-6" vertex="1">
          <mxGeometry x="62" y="1265" width="50" height="30" as="geometry" />
        </mxCell>
        <mxCell id="pIc5v-TNFkZiDa0ryKYn-7" value="&lt;span style=&quot;font-weight: normal;&quot;&gt;System&lt;/span&gt;" style="swimlane;startSize=20;whiteSpace=wrap;html=1;" parent="1" vertex="1">
          <mxGeometry x="380" y="80" width="270" height="1590" as="geometry" />
        </mxCell>
        <mxCell id="pIc5v-TNFkZiDa0ryKYn-29" style="edgeStyle=orthogonalEdgeStyle;rounded=0;orthogonalLoop=1;jettySize=auto;html=1;entryX=0.5;entryY=0;entryDx=0;entryDy=0;strokeColor=default;align=center;verticalAlign=middle;fontFamily=Helvetica;fontSize=11;fontColor=default;labelBackgroundColor=default;endArrow=open;endFill=0;" parent="pIc5v-TNFkZiDa0ryKYn-7" source="pIc5v-TNFkZiDa0ryKYn-25" target="pIc5v-TNFkZiDa0ryKYn-28" edge="1">
          <mxGeometry relative="1" as="geometry" />
        </mxCell>
        <mxCell id="pIc5v-TNFkZiDa0ryKYn-25" value="Dienstplan generieren" style="rounded=1;whiteSpace=wrap;html=1;fontFamily=Helvetica;fontSize=11;fontColor=default;labelBackgroundColor=default;" parent="pIc5v-TNFkZiDa0ryKYn-7" vertex="1">
          <mxGeometry x="81" y="650" width="98" height="40" as="geometry" />
        </mxCell>
        <mxCell id="pIc5v-TNFkZiDa0ryKYn-82" style="edgeStyle=orthogonalEdgeStyle;rounded=0;orthogonalLoop=1;jettySize=auto;html=1;entryX=0.5;entryY=0;entryDx=0;entryDy=0;strokeColor=default;align=center;verticalAlign=middle;fontFamily=Helvetica;fontSize=11;fontColor=default;labelBackgroundColor=default;endArrow=open;endFill=0;" parent="pIc5v-TNFkZiDa0ryKYn-7" source="pIc5v-TNFkZiDa0ryKYn-28" target="pIc5v-TNFkZiDa0ryKYn-81" edge="1">
          <mxGeometry relative="1" as="geometry" />
        </mxCell>
        <mxCell id="pIc5v-TNFkZiDa0ryKYn-28" value="" style="rhombus;whiteSpace=wrap;html=1;fontFamily=Helvetica;fontSize=11;fontColor=default;labelBackgroundColor=default;" parent="pIc5v-TNFkZiDa0ryKYn-7" vertex="1">
          <mxGeometry x="105" y="738" width="50" height="50" as="geometry" />
        </mxCell>
        <mxCell id="pIc5v-TNFkZiDa0ryKYn-54" style="edgeStyle=orthogonalEdgeStyle;rounded=0;orthogonalLoop=1;jettySize=auto;html=1;entryX=1;entryY=0.5;entryDx=0;entryDy=0;strokeColor=default;align=center;verticalAlign=middle;fontFamily=Helvetica;fontSize=11;fontColor=default;labelBackgroundColor=default;endArrow=open;endFill=0;exitX=1;exitY=0.5;exitDx=0;exitDy=0;" parent="pIc5v-TNFkZiDa0ryKYn-7" source="pIc5v-TNFkZiDa0ryKYn-53" target="pIc5v-TNFkZiDa0ryKYn-28" edge="1">
          <mxGeometry relative="1" as="geometry">
            <Array as="points">
              <mxPoint x="220" y="987" />
              <mxPoint x="220" y="763" />
            </Array>
          </mxGeometry>
        </mxCell>
        <mxCell id="pIc5v-TNFkZiDa0ryKYn-53" value="Dienstplan regenerieren" style="rounded=1;whiteSpace=wrap;html=1;fontFamily=Helvetica;fontSize=11;fontColor=default;labelBackgroundColor=default;" parent="pIc5v-TNFkZiDa0ryKYn-7" vertex="1">
          <mxGeometry x="81" y="967" width="98" height="40" as="geometry" />
        </mxCell>
        <mxCell id="pIc5v-TNFkZiDa0ryKYn-56" value="Konflikte&lt;div&gt;vorhanden?&lt;/div&gt;" style="text;html=1;align=center;verticalAlign=middle;resizable=0;points=[];autosize=1;strokeColor=none;fillColor=none;fontFamily=Helvetica;fontSize=11;fontColor=default;labelBackgroundColor=default;" parent="pIc5v-TNFkZiDa0ryKYn-7" vertex="1">
          <mxGeometry x="150" y="720" width="80" height="40" as="geometry" />
        </mxCell>
        <mxCell id="pIc5v-TNFkZiDa0ryKYn-65" value="[ja]" style="text;html=1;align=center;verticalAlign=middle;resizable=0;points=[];autosize=1;strokeColor=none;fillColor=none;fontFamily=Helvetica;fontSize=11;fontColor=default;labelBackgroundColor=default;" parent="pIc5v-TNFkZiDa0ryKYn-7" vertex="1">
          <mxGeometry x="122" y="788" width="40" height="30" as="geometry" />
        </mxCell>
        <mxCell id="pIc5v-TNFkZiDa0ryKYn-70" value="Dienstplan speichern" style="rounded=1;whiteSpace=wrap;html=1;fontFamily=Helvetica;fontSize=11;fontColor=default;labelBackgroundColor=default;" parent="pIc5v-TNFkZiDa0ryKYn-7" vertex="1">
          <mxGeometry x="81" y="1197" width="98" height="40" as="geometry" />
        </mxCell>
        <mxCell id="pIc5v-TNFkZiDa0ryKYn-81" value="Optionen anzeigen" style="rounded=1;whiteSpace=wrap;html=1;fontFamily=Helvetica;fontSize=11;fontColor=default;labelBackgroundColor=default;" parent="pIc5v-TNFkZiDa0ryKYn-7" vertex="1">
          <mxGeometry x="75.5" y="827" width="109" height="40" as="geometry" />
        </mxCell>
        <mxCell id="pIc5v-TNFkZiDa0ryKYn-66" value="[nein]" style="text;html=1;align=center;verticalAlign=middle;resizable=0;points=[];autosize=1;strokeColor=none;fillColor=none;fontFamily=Helvetica;fontSize=11;fontColor=default;labelBackgroundColor=default;" parent="pIc5v-TNFkZiDa0ryKYn-7" vertex="1">
          <mxGeometry x="55" y="738" width="50" height="30" as="geometry" />
        </mxCell>
        <mxCell id="pIc5v-TNFkZiDa0ryKYn-90" value="[regenerieren]" style="text;html=1;align=center;verticalAlign=middle;resizable=0;points=[];autosize=1;strokeColor=none;fillColor=none;fontFamily=Helvetica;fontSize=11;fontColor=default;labelBackgroundColor=default;" parent="pIc5v-TNFkZiDa0ryKYn-7" vertex="1">
          <mxGeometry x="-65" y="962" width="90" height="30" as="geometry" />
        </mxCell>
        <mxCell id="pIc5v-TNFkZiDa0ryKYn-93" value="Dienstplan exportieren" style="rounded=1;whiteSpace=wrap;html=1;fontFamily=Helvetica;fontSize=11;fontColor=default;labelBackgroundColor=default;" parent="pIc5v-TNFkZiDa0ryKYn-7" vertex="1">
          <mxGeometry x="81" y="1358" width="98" height="40" as="geometry" />
        </mxCell>
        <mxCell id="pIc5v-TNFkZiDa0ryKYn-26" style="edgeStyle=orthogonalEdgeStyle;rounded=0;orthogonalLoop=1;jettySize=auto;html=1;strokeColor=default;align=center;verticalAlign=middle;fontFamily=Helvetica;fontSize=11;fontColor=default;labelBackgroundColor=default;endArrow=open;endFill=0;" parent="1" source="pIc5v-TNFkZiDa0ryKYn-22" target="pIc5v-TNFkZiDa0ryKYn-25" edge="1">
          <mxGeometry relative="1" as="geometry" />
        </mxCell>
        <mxCell id="pIc5v-TNFkZiDa0ryKYn-47" value="" style="strokeWidth=1;html=1;shape=mxgraph.flowchart.annotation_2;align=left;labelPosition=right;pointerEvents=1;rotation=90;fontFamily=Helvetica;fontSize=11;fontColor=default;labelBackgroundColor=default;" parent="1" vertex="1">
          <mxGeometry x="225" y="754" width="9" height="11" as="geometry" />
        </mxCell>
        <mxCell id="pIc5v-TNFkZiDa0ryKYn-48" value="" style="endArrow=none;html=1;rounded=0;entryX=0.519;entryY=0.49;entryDx=0;entryDy=0;entryPerimeter=0;exitX=1;exitY=0.5;exitDx=0;exitDy=0;exitPerimeter=0;strokeWidth=1;strokeColor=default;align=center;verticalAlign=middle;fontFamily=Helvetica;fontSize=11;fontColor=default;labelBackgroundColor=default;edgeStyle=orthogonalEdgeStyle;" parent="1" source="pIc5v-TNFkZiDa0ryKYn-47" target="pIc5v-TNFkZiDa0ryKYn-47" edge="1">
          <mxGeometry width="50" height="50" relative="1" as="geometry">
            <mxPoint x="-348" y="855.5" as="sourcePoint" />
            <mxPoint x="-285" y="885.5" as="targetPoint" />
          </mxGeometry>
        </mxCell>
        <mxCell id="pIc5v-TNFkZiDa0ryKYn-50" style="edgeStyle=orthogonalEdgeStyle;rounded=0;orthogonalLoop=1;jettySize=auto;html=1;entryX=0;entryY=0.5;entryDx=0;entryDy=0;strokeColor=default;align=center;verticalAlign=middle;fontFamily=Helvetica;fontSize=11;fontColor=default;labelBackgroundColor=default;endArrow=open;endFill=0;" parent="1" source="pIc5v-TNFkZiDa0ryKYn-46" target="pIc5v-TNFkZiDa0ryKYn-25" edge="1">
          <mxGeometry relative="1" as="geometry" />
        </mxCell>
        <mxCell id="pIc5v-TNFkZiDa0ryKYn-73" style="edgeStyle=orthogonalEdgeStyle;rounded=0;orthogonalLoop=1;jettySize=auto;html=1;entryX=1;entryY=0.5;entryDx=0;entryDy=0;strokeColor=default;align=center;verticalAlign=middle;fontFamily=Helvetica;fontSize=11;fontColor=default;labelBackgroundColor=default;endArrow=open;endFill=0;exitX=0.5;exitY=1;exitDx=0;exitDy=0;" parent="1" source="pIc5v-TNFkZiDa0ryKYn-70" target="pIc5v-TNFkZiDa0ryKYn-72" edge="1">
          <mxGeometry relative="1" as="geometry">
            <mxPoint x="510" y="1325" as="sourcePoint" />
            <Array as="points">
              <mxPoint x="510" y="1370" />
            </Array>
          </mxGeometry>
        </mxCell>
        <mxCell id="pIc5v-TNFkZiDa0ryKYn-78" style="edgeStyle=orthogonalEdgeStyle;rounded=0;orthogonalLoop=1;jettySize=auto;html=1;entryX=0;entryY=0.5;entryDx=0;entryDy=0;strokeColor=default;align=center;verticalAlign=middle;fontFamily=Helvetica;fontSize=11;fontColor=default;labelBackgroundColor=default;endArrow=open;endFill=0;" parent="1" source="pIc5v-TNFkZiDa0ryKYn-74" target="pIc5v-TNFkZiDa0ryKYn-53" edge="1">
          <mxGeometry relative="1" as="geometry" />
        </mxCell>
        <mxCell id="pIc5v-TNFkZiDa0ryKYn-83" style="edgeStyle=orthogonalEdgeStyle;rounded=0;orthogonalLoop=1;jettySize=auto;html=1;entryX=1;entryY=0.5;entryDx=0;entryDy=0;strokeColor=default;align=center;verticalAlign=middle;fontFamily=Helvetica;fontSize=11;fontColor=default;labelBackgroundColor=default;endArrow=open;endFill=0;" parent="1" source="pIc5v-TNFkZiDa0ryKYn-81" target="pIc5v-TNFkZiDa0ryKYn-30" edge="1">
          <mxGeometry relative="1" as="geometry" />
        </mxCell>
        <mxCell id="pIc5v-TNFkZiDa0ryKYn-87" style="edgeStyle=orthogonalEdgeStyle;rounded=0;orthogonalLoop=1;jettySize=auto;html=1;entryX=0;entryY=0.5;entryDx=0;entryDy=0;strokeColor=default;align=center;verticalAlign=middle;fontFamily=Helvetica;fontSize=11;fontColor=default;labelBackgroundColor=default;endArrow=open;endFill=0;" parent="1" source="pIc5v-TNFkZiDa0ryKYn-28" target="pIc5v-TNFkZiDa0ryKYn-32" edge="1">
          <mxGeometry relative="1" as="geometry">
            <Array as="points">
              <mxPoint x="90" y="843" />
              <mxPoint x="90" y="1017" />
            </Array>
          </mxGeometry>
        </mxCell>
        <mxCell id="pIc5v-TNFkZiDa0ryKYn-88" style="edgeStyle=orthogonalEdgeStyle;rounded=0;orthogonalLoop=1;jettySize=auto;html=1;entryX=0;entryY=0.5;entryDx=0;entryDy=0;strokeColor=default;align=center;verticalAlign=middle;fontFamily=Helvetica;fontSize=11;fontColor=default;labelBackgroundColor=default;endArrow=open;endFill=0;exitX=0.5;exitY=1;exitDx=0;exitDy=0;" parent="1" source="pIc5v-TNFkZiDa0ryKYn-51" target="pIc5v-TNFkZiDa0ryKYn-70" edge="1">
          <mxGeometry relative="1" as="geometry">
            <Array as="points">
              <mxPoint x="192" y="1297" />
            </Array>
          </mxGeometry>
        </mxCell>
        <mxCell id="pIc5v-TNFkZiDa0ryKYn-94" style="edgeStyle=orthogonalEdgeStyle;rounded=0;orthogonalLoop=1;jettySize=auto;html=1;entryX=0;entryY=0.5;entryDx=0;entryDy=0;strokeColor=default;align=center;verticalAlign=middle;fontFamily=Helvetica;fontSize=11;fontColor=default;labelBackgroundColor=default;endArrow=open;endFill=0;" parent="1" source="pIc5v-TNFkZiDa0ryKYn-91" target="pIc5v-TNFkZiDa0ryKYn-93" edge="1">
          <mxGeometry relative="1" as="geometry" />
        </mxCell>
        <mxCell id="pIc5v-TNFkZiDa0ryKYn-97" style="edgeStyle=orthogonalEdgeStyle;rounded=0;orthogonalLoop=1;jettySize=auto;html=1;entryX=1;entryY=0.5;entryDx=0;entryDy=0;strokeColor=default;align=center;verticalAlign=middle;fontFamily=Helvetica;fontSize=11;fontColor=default;labelBackgroundColor=default;endArrow=open;endFill=0;" parent="1" source="pIc5v-TNFkZiDa0ryKYn-93" target="pIc5v-TNFkZiDa0ryKYn-95" edge="1">
          <mxGeometry relative="1" as="geometry">
            <Array as="points">
              <mxPoint x="510" y="1533" />
            </Array>
          </mxGeometry>
        </mxCell>
      </root>
    </mxGraphModel>
  </diagram>
</mxfile>
